<svg width="24" height="25" viewBox="0 0 24 25" fill="none" xmlns="http://www.w3.org/2000/svg">
<g id="mdi:instagram" opacity="0.6">
<path id="Vector" d="M7.8 2.96143H16.2C19.4 2.96143 22 5.56143 22 8.76143V17.1614C22 18.6997 21.3889 20.1749 20.3012 21.2626C19.2135 22.3504 17.7383 22.9614 16.2 22.9614H7.8C4.6 22.9614 2 20.3614 2 17.1614V8.76143C2 7.22317 2.61107 5.74792 3.69878 4.66021C4.78649 3.5725 6.26174 2.96143 7.8 2.96143ZM7.6 4.96143C6.64522 4.96143 5.72955 5.34071 5.05442 6.01584C4.37928 6.69097 4 7.60665 4 8.56143V17.3614C4 19.3514 5.61 20.9614 7.6 20.9614H16.4C17.3548 20.9614 18.2705 20.5821 18.9456 19.907C19.6207 19.2319 20 18.3162 20 17.3614V8.56143C20 6.57143 18.39 4.96143 16.4 4.96143H7.6ZM17.25 6.46143C17.5815 6.46143 17.8995 6.59312 18.1339 6.82754C18.3683 7.06196 18.5 7.37991 18.5 7.71143C18.5 8.04295 18.3683 8.36089 18.1339 8.59531C17.8995 8.82973 17.5815 8.96143 17.25 8.96143C16.9185 8.96143 16.6005 8.82973 16.3661 8.59531C16.1317 8.36089 16 8.04295 16 7.71143C16 7.37991 16.1317 7.06196 16.3661 6.82754C16.6005 6.59312 16.9185 6.46143 17.25 6.46143ZM12 7.96143C13.3261 7.96143 14.5979 8.48821 15.5355 9.42589C16.4732 10.3636 17 11.6353 17 12.9614C17 14.2875 16.4732 15.5593 15.5355 16.497C14.5979 17.4346 13.3261 17.9614 12 17.9614C10.6739 17.9614 9.40215 17.4346 8.46447 16.497C7.52678 15.5593 7 14.2875 7 12.9614C7 11.6353 7.52678 10.3636 8.46447 9.42589C9.40215 8.48821 10.6739 7.96143 12 7.96143ZM12 9.96143C11.2044 9.96143 10.4413 10.2775 9.87868 10.8401C9.31607 11.4027 9 12.1658 9 12.9614C9 13.7571 9.31607 14.5201 9.87868 15.0827C10.4413 15.6454 11.2044 15.9614 12 15.9614C12.7956 15.9614 13.5587 15.6454 14.1213 15.0827C14.6839 14.5201 15 13.7571 15 12.9614C15 12.1658 14.6839 11.4027 14.1213 10.8401C13.5587 10.2775 12.7956 9.96143 12 9.96143Z" fill="black"/>
</g>
</svg>
