<svg width="40" height="40" viewBox="0 0 40 40" fill="none" xmlns="http://www.w3.org/2000/svg">
<g id="iconamoon:lightning-2-fill" clip-path="url(#clip0_379_286)">
<path id="Vector" d="M17.1218 22.0059L16.0261 21.7182L11.0391 20.4087C10.9891 20.3956 10.9428 20.371 10.9039 20.3369L10.2485 21.0835L10.9039 20.3369C10.865 20.3027 10.8346 20.26 10.8151 20.2121C10.7955 20.1641 10.7875 20.1123 10.7914 20.0607C10.7954 20.0091 10.8113 19.9592 10.838 19.9148L19.415 5.62449C19.4521 5.56265 19.5082 5.51452 19.575 5.48731C19.6418 5.46011 19.7157 5.45531 19.7854 5.47363L28.1676 7.67449C28.1676 7.6745 28.1677 7.67451 28.1677 7.67452C28.2197 7.68822 28.2677 7.71432 28.3074 7.75058C28.3472 7.78686 28.3776 7.83225 28.396 7.88284C28.4145 7.93344 28.4203 7.98775 28.4132 8.04112C28.4061 8.09449 28.3861 8.14533 28.355 8.1893L22.8886 15.9198L22.0555 17.0979L23.4511 17.4643L28.0383 18.6688L28.0385 18.6688C28.0968 18.6841 28.15 18.715 28.1921 18.7581C28.2343 18.8013 28.264 18.8551 28.2781 18.9138C28.2921 18.9725 28.2899 19.0339 28.2718 19.0914C28.2536 19.149 28.2202 19.2005 28.1751 19.2406L28.1748 19.2408L13.7945 32.0074L13.7933 32.0084C13.7372 32.0584 13.6658 32.088 13.5907 32.0923C13.5157 32.0966 13.4414 32.0754 13.3799 32.0322C13.3184 31.9889 13.2733 31.9261 13.252 31.854C13.2307 31.782 13.2344 31.7048 13.2624 31.635L13.263 31.6336L16.7004 23.0574L17.1218 22.0059Z" fill="#F0C932" stroke="#F8F8F8" stroke-width="2"/>
</g>
<defs>
<clipPath id="clip0_379_286">
<rect width="32" height="32" fill="white" transform="translate(8.12659) rotate(14.7118)"/>
</clipPath>
</defs>
</svg>
