<svg width="16" height="16" viewBox="0 0 16 16" fill="none" xmlns="http://www.w3.org/2000/svg">
<path d="M13.632 13.6344H11.2624V9.9224C11.2624 9.0368 11.244 7.8976 10.0272 7.8976C8.792 7.8976 8.6032 8.8608 8.6032 9.8568V13.6344H6.2344V6H8.5096V7.04H8.5408C8.8584 6.44 9.632 5.808 10.7872 5.808C13.188 5.808 13.632 7.3872 13.632 9.444V13.6344ZM3.5576 4.9552C2.7944 4.9552 2.1816 4.3384 2.1816 3.5792C2.1816 2.82 2.7952 2.2032 3.5576 2.2032C3.92254 2.2032 4.27253 2.34817 4.53058 2.60622C4.78863 2.86427 4.9336 3.21426 4.9336 3.5792C4.9336 3.94414 4.78863 4.29413 4.53058 4.55218C4.27253 4.81023 3.92254 4.9552 3.5576 4.9552ZM4.7448 13.6352H2.3688V6H4.7448V13.6344V13.6352ZM14.8168 0H1.1808C0.528 0 0 0.516 0 1.152V14.848C0 15.484 0.528 16 1.1808 16H14.8144C15.4664 16 16 15.4848 16 14.848V1.152C16 0.5168 15.4664 0 14.8144 0H14.8168Z" fill="#2489D3"/>
</svg>
