<svg width="24" height="25" viewBox="0 0 24 25" fill="none" xmlns="http://www.w3.org/2000/svg">
<g id="ant-design:linkedin-outlined" opacity="0.6">
<path id="Vector" d="M19.868 3.58643H4.13203C3.3 3.58643 2.625 4.26143 2.625 5.09346V20.8294C2.625 21.6614 3.3 22.3364 4.13203 22.3364H19.868C20.7 22.3364 21.375 21.6614 21.375 20.8294V5.09346C21.375 4.26143 20.7 3.58643 19.868 3.58643ZM19.868 20.8364C9.37266 20.8341 4.125 20.8317 4.125 20.8294C4.12734 10.3341 4.12969 5.08643 4.13203 5.08643C14.6273 5.08877 19.875 5.09111 19.875 5.09346C19.8727 15.5888 19.8703 20.8364 19.868 20.8364ZM5.40469 10.6153H8.18672V19.5638H5.40469V10.6153ZM6.79688 9.39189C7.68516 9.39189 8.40937 8.67002 8.40937 7.77939C8.40937 7.56764 8.36767 7.35795 8.28663 7.16232C8.2056 6.96668 8.08682 6.78892 7.93709 6.63918C7.78735 6.48945 7.60959 6.37067 7.41395 6.28964C7.21831 6.2086 7.00863 6.16689 6.79688 6.16689C6.58512 6.16689 6.37544 6.2086 6.1798 6.28964C5.98416 6.37067 5.8064 6.48945 5.65667 6.63918C5.50693 6.78892 5.38815 6.96668 5.30712 7.16232C5.22608 7.35795 5.18437 7.56764 5.18437 7.77939C5.18203 8.67002 5.90391 9.39189 6.79688 9.39189ZM12.7102 15.1364C12.7102 13.9692 12.9328 12.8396 14.3789 12.8396C15.8039 12.8396 15.825 14.1731 15.825 15.2114V19.5638H18.6047V14.656C18.6047 12.2466 18.0844 10.3927 15.2695 10.3927C13.9172 10.3927 13.0102 11.1356 12.6375 11.8388H12.6V10.6153H9.93047V19.5638H12.7102V15.1364Z" fill="black"/>
</g>
</svg>
