<svg width="151" height="100" viewBox="0 0 151 100" fill="none" xmlns="http://www.w3.org/2000/svg">
<g id="bi:quote" opacity="0.5" clip-path="url(#clip0_491_852)">
<path id="Vector" d="M113.25 62.25C115.753 62.25 118.153 61.2557 119.923 59.4858C121.693 57.7159 122.687 55.3155 122.687 52.8125V29.7661C122.687 27.2631 121.693 24.8627 119.923 23.0928C118.153 21.3229 115.753 20.3286 113.25 20.3286H100.151C100.151 17.0161 100.349 13.6941 100.736 10.3815C101.321 6.87075 102.302 3.74694 103.661 1.0195C105.03 -1.71737 106.785 -3.85969 108.937 -5.42631C111.079 -7.18169 113.807 -8.05937 117.129 -8.05937V-22.6875C111.664 -22.6875 106.889 -21.5173 102.784 -19.1768C98.7142 -16.86 95.2153 -13.661 92.544 -9.81475C89.8631 -5.57435 87.8871 -0.927483 86.6928 3.94513C85.4894 9.32224 84.9005 14.8186 84.9374 20.3286V52.8125C84.9374 55.3155 85.9317 57.7159 87.7016 59.4858C89.4715 61.2557 91.8719 62.25 94.3749 62.25H113.25ZM56.6249 62.25C59.1279 62.25 61.5284 61.2557 63.2982 59.4858C65.0681 57.7159 66.0624 55.3155 66.0624 52.8125V29.7661C66.0624 27.2631 65.0681 24.8627 63.2982 23.0928C61.5284 21.3229 59.1279 20.3286 56.6249 20.3286H43.5257C43.5257 17.0161 43.7239 13.6941 44.1108 10.3815C44.6959 6.87075 45.6774 3.74694 47.0364 1.0195C48.4049 -1.71737 50.1602 -3.85969 52.312 -5.42631C54.4543 -7.18169 57.1817 -8.05937 60.5037 -8.05937V-22.6875C55.0394 -22.6875 50.264 -21.5173 46.1587 -19.1768C42.0892 -16.86 38.5903 -13.661 35.9191 -9.81475C33.2381 -5.57435 31.2621 -0.927483 30.0678 3.94513C28.8644 9.32224 28.2755 14.8186 28.3124 20.3286V52.8125C28.3124 55.3155 29.3067 57.7159 31.0766 59.4858C32.8465 61.2557 35.2469 62.25 37.7499 62.25H56.6249Z" fill="#2489D3"/>
</g>
<defs>
<clipPath id="clip0_491_852">
<rect width="151" height="100" fill="white"/>
</clipPath>
</defs>
</svg>
