<svg width="40" height="40" viewBox="0 0 40 40" fill="none" xmlns="http://www.w3.org/2000/svg">
<g id="mingcute:certificate-line" clip-path="url(#clip0_136_753)">
<g id="Group">
<path id="Vector" d="M17.6433 3.50001C18.2333 2.9108 19.0227 2.5641 19.8558 2.52831C20.6888 2.49252 21.505 2.77024 22.1433 3.30668L22.3567 3.50168L25.5233 6.66668H30C30.8407 6.66683 31.6503 6.98463 32.2665 7.55641C32.8828 8.12818 33.2603 8.91171 33.3233 9.75001L33.3333 10V14.4767L36.5 17.6433C37.0897 18.2334 37.4367 19.0231 37.4725 19.8566C37.5083 20.69 37.2303 21.5066 36.6933 22.145L36.4983 22.3567L33.3317 25.5233V30C33.3319 30.841 33.0143 31.651 32.4425 32.2676C31.8707 32.8842 31.0869 33.2619 30.2483 33.325L30 33.3333H25.525L22.3583 36.5C21.7683 37.0897 20.9786 37.4367 20.1451 37.4725C19.3117 37.5083 18.4951 37.2303 17.8567 36.6933L17.645 36.5L14.4783 33.3333H10C9.15905 33.3336 8.34907 33.016 7.73243 32.4442C7.1158 31.8724 6.73808 31.0886 6.67501 30.25L6.66668 30V25.5233L3.50001 22.3567C2.91034 21.7666 2.56334 20.9769 2.52755 20.1435C2.49175 19.31 2.76976 18.4935 3.30668 17.855L3.50001 17.6433L6.66668 14.4767V10C6.66683 9.15934 6.98463 8.34977 7.55641 7.73349C8.12818 7.11721 8.91171 6.73973 9.75001 6.67668L10 6.66668H14.4767L17.6433 3.50001ZM20 5.86001L16.8333 9.02668C16.2797 9.57943 15.5493 9.91985 14.77 9.98835L14.4767 10H10V14.4767C10.0002 15.2598 9.72466 16.0181 9.22168 16.6183L9.02334 16.835L5.85668 20.0017L9.02334 23.1667C9.57671 23.72 9.91773 24.4505 9.98668 25.23L10 25.5233V30H14.4767C15.2598 29.9998 16.0181 30.2754 16.6183 30.7783L16.835 30.9767L20 34.1433L23.1667 30.9767C23.72 30.4233 24.4505 30.0823 25.23 30.0133L25.5233 30H30V25.5233C29.9998 24.7402 30.2754 23.982 30.7783 23.3817L30.9767 23.165L34.1433 20L30.9767 16.8333C30.4233 16.28 30.0823 15.5496 30.0133 14.77L30 14.4767V10H25.5233C24.7402 10.0002 23.982 9.72466 23.3817 9.22168L23.165 9.02335L19.9983 5.85668L20 5.86001ZM25.1333 14.9733C25.4333 14.6744 25.8357 14.5009 26.259 14.488C26.6822 14.475 27.0945 14.6237 27.4121 14.9038C27.7298 15.1838 27.9289 15.5743 27.969 15.9958C28.0092 16.4173 27.8874 16.8384 27.6283 17.1733L27.4883 17.33L19.355 25.4633C19.0375 25.7813 18.6142 25.9716 18.1656 25.998C17.717 26.0244 17.2744 25.8852 16.9217 25.6067L16.7617 25.465L12.755 21.4583C12.4529 21.1591 12.2766 20.7557 12.2622 20.3308C12.2478 19.9058 12.3963 19.4914 12.6775 19.1724C12.9586 18.8534 13.351 18.6538 13.7744 18.6147C14.1978 18.5755 14.6201 18.6996 14.955 18.9617L15.1117 19.1L18.0583 22.0467L25.1333 14.9733Z" fill="white"/>
</g>
</g>
<defs>
<clipPath id="clip0_136_753">
<rect width="40" height="40" fill="white"/>
</clipPath>
</defs>
</svg>
